<svg xmlns="http://www.w3.org/2000/svg" id="Layer_2" viewBox="0 0 500 500"><style>.st0{fill:#dee1e6}</style><g><path d="M251.1 225.5c-18.3 0-33.1 14.8-33.1 33.1s14.8 33.1 33.1 33.1 33.1-14.8 33.1-33.1-14.8-33.1-33.1-33.1zm0 55.3c-12.3 0-22.2-10-22.2-22.2 0-12.3 10-22.2 22.2-22.2 12.3 0 22.2 10 22.2 22.2 0 12.3-9.9 22.2-22.2 22.2z" class="st0"/><g><path d="M280 205v-14.2c0-3.1-1.9-5.8-5-5.8h-47.8c-3.1 0-6.2 2.7-6.2 5.8V205m-62.7 1.7c-3.1 0-6.3 2.3-6.3 5.4v96.1c0 3.1 3.8 6.7 6.9 6.7h184.8c3.1 0 4.3-3.6 4.3-6.7v-96.1c0-3.1-1.2-5.2-4.3-5.2h-6.3s-.4-.7-.4-.9v-3.5c0-3.1-2.1-5.6-5.2-5.6h-9.3c-3.1 0-6.5 2.5-6.5 5.6v3.5c0 .2.3.5.3.7M179 286.4c0 3.1-2.5 5.6-5.6 5.6h-1.8c-3.1 0-5.6-2.5-5.6-5.6v-48.8c0-3.1 2.5-5.6 5.6-5.6h1.8c3.1 0 5.6 2.5 5.6 5.6v48.8zm72.1 11.9c-21.9 0-39.7-17.8-39.7-39.7s17.8-39.7 39.7-39.7c21.9 0 39.7 17.8 39.7 39.7s-17.8 39.7-39.7 39.7z" class="st0"/></g></g></svg>